<svg xmlns="http://www.w3.org/2000/svg" viewBox="0 0 128 128" width="128" height="128" role="img" aria-labelledby="title-claw">
 <title id="title-claw">Claw Automation Core icon</title>
 <defs>
 <linearGradient id="cg" x1="24" y1="24" x2="104" y2="104" gradientUnits="userSpaceOnUse">
 <stop offset="0" stop-color="#71EEFF"/>
 <stop offset="0.5" stop-color="#5C7CFF"/>
 <stop offset="1" stop-color="#9C5CFF"/>
 </linearGradient>
 <filter id="cglow" x="-50%" y="-50%" width="200%" height="200%">
 <feGaussianBlur stdDeviation="4" result="b"/>
 <feMerge>
 <feMergeNode in="b"/>
 <feMergeNode in="SourceGraphic"/>
 </feMerge>
 </filter>
 </defs>
 <circle cx="64" cy="64" r="52" fill="#0A0F1E" stroke="url(#cg)" stroke-width="2.5" opacity=".95"/>
 <circle cx="64" cy="64" r="39" fill="none" stroke="#7B61FF" stroke-width="1.6" opacity=".35"/>
 <path d="M48 44c-8 3-13 10-13 20s5 17 13 20m32-40c8 3 13 10 13 20s-5 17-13 20" fill="none" stroke="url(#cg)" stroke-width="4" stroke-linecap="round" filter="url(#cglow)"/>
 <path d="M56 42c-5 5-7 11-7 22s2 17 7 22m16-44c5 5 7 11 7 22s-2 17-7 22" fill="none" stroke="#D2C8FF" stroke-width="2.4" opacity=".9" stroke-linecap="round"/>
 <path d="M64 34v60M44 64h40" stroke="#69DFFF" stroke-width="2.8" stroke-linecap="round" opacity=".95"/>
 <path d="M64 52l12 12-12 12-12-12 12-12Z" fill="none" stroke="#8F61FF" stroke-width="2.8" stroke-linejoin="round"/>
 <circle cx="64" cy="34" r="4" fill="#69DFFF"/>
 <circle cx="64" cy="94" r="4" fill="#69DFFF"/>
 <circle cx="44" cy="64" r="4" fill="#5C7CFF"/>
 <circle cx="84" cy="64" r="4" fill="#9C5CFF"/>
</svg>
