<svg xmlns="http://www.w3.org/2000/svg" viewBox="0 0 64 64" width="64" height="64" role="img" aria-labelledby="title-storage2">
 <title id="title-storage2">Storage and backup icon</title>
 <defs>
 <linearGradient id="sbg1" x1="14" y1="14" x2="50" y2="50" gradientUnits="userSpaceOnUse">
 <stop offset="0" stop-color="#FFD57A"/>
 <stop offset="1" stop-color="#FFB347"/>
 </linearGradient>
 <linearGradient id="sbg2" x1="18" y1="18" x2="48" y2="48" gradientUnits="userSpaceOnUse">
 <stop offset="0" stop-color="#82E8FF"/>
 <stop offset="1" stop-color="#4A7CFF"/>
 </linearGradient>
 </defs>
 <rect x="8" y="8" width="48" height="48" rx="14" fill="#0B1220" stroke="#523B1B"/>
 <ellipse cx="28" cy="20" rx="10" ry="4.5" fill="none" stroke="url(#sbg1)" stroke-width="2.4"/>
 <path d="M18 20v18c0 2.5 4.5 4.5 10 4.5s10-2 10-4.5V20" fill="none" stroke="url(#sbg1)" stroke-width="2.4"/>
 <path d="M18 28c0 2.5 4.5 4.5 10 4.5s10-2 10-4.5" fill="none" stroke="url(#sbg1)" stroke-width="2.4"/>
 <path d="M18 36c0 2.5 4.5 4.5 10 4.5s10-2 10-4.5" fill="none" stroke="url(#sbg1)" stroke-width="2.4"/>
 <path d="M42 38v-8.5l5.5-3.5 5.5 3.5V38c0 4.5-3.3 8.2-7.6 9.6C45.3 46.2 42 42.5 42 38Z" fill="none" stroke="url(#sbg2)" stroke-width="2.2" stroke-linejoin="round"/>
 <path d="M45.1 37.8l2 2 4.3-5" fill="none" stroke="#D8EDFF" stroke-width="2.2" stroke-linecap="round" stroke-linejoin="round"/>
</svg>
