<svg xmlns="http://www.w3.org/2000/svg" viewBox="0 0 64 64" fill="none">
  <!-- Hexagon outline -->
  <path d="M32 4L56.785 18.5V47.5L32 62L7.215 47.5V18.5L32 4Z" stroke="#4f8dff" stroke-width="2" fill="rgba(79,141,255,0.08)"/>

  <!-- Inner connection lines -->
  <line x1="22" y1="24" x2="32" y2="18" stroke="#4f8dff" stroke-width="1.5" opacity="0.6"/>
  <line x1="42" y1="24" x2="32" y2="18" stroke="#4f8dff" stroke-width="1.5" opacity="0.6"/>
  <line x1="22" y1="24" x2="22" y2="38" stroke="#4f8dff" stroke-width="1.5" opacity="0.6"/>
  <line x1="42" y1="24" x2="42" y2="38" stroke="#4f8dff" stroke-width="1.5" opacity="0.6"/>
  <line x1="22" y1="38" x2="32" y2="44" stroke="#4f8dff" stroke-width="1.5" opacity="0.6"/>
  <line x1="42" y1="38" x2="32" y2="44" stroke="#4f8dff" stroke-width="1.5" opacity="0.6"/>
  <line x1="22" y1="24" x2="42" y2="38" stroke="#4f8dff" stroke-width="1" opacity="0.3"/>
  <line x1="42" y1="24" x2="22" y2="38" stroke="#4f8dff" stroke-width="1" opacity="0.3"/>
  <line x1="32" y1="18" x2="32" y2="44" stroke="#4f8dff" stroke-width="1" opacity="0.3"/>

  <!-- Node dots -->
  <circle cx="32" cy="18" r="4" fill="#4f8dff"/>
  <circle cx="32" cy="18" r="6" fill="none" stroke="#4f8dff" stroke-width="0.5" opacity="0.3"/>

  <circle cx="22" cy="24" r="3.5" fill="#9d5cff"/>
  <circle cx="22" cy="24" r="5.5" fill="none" stroke="#9d5cff" stroke-width="0.5" opacity="0.3"/>

  <circle cx="42" cy="24" r="3.5" fill="#34d769"/>
  <circle cx="42" cy="24" r="5.5" fill="none" stroke="#34d769" stroke-width="0.5" opacity="0.3"/>

  <circle cx="22" cy="38" r="3.5" fill="#d69f3a"/>
  <circle cx="22" cy="38" r="5.5" fill="none" stroke="#d69f3a" stroke-width="0.5" opacity="0.3"/>

  <circle cx="42" cy="38" r="3.5" fill="#2bc2d9"/>
  <circle cx="42" cy="38" r="5.5" fill="none" stroke="#2bc2d9" stroke-width="0.5" opacity="0.3"/>

  <circle cx="32" cy="44" r="3.5" fill="#edf3ff"/>
  <circle cx="32" cy="44" r="5.5" fill="none" stroke="#edf3ff" stroke-width="0.5" opacity="0.3"/>

  <!-- Center glow -->
  <circle cx="32" cy="31" r="2" fill="#4f8dff" opacity="0.5"/>
  <circle cx="32" cy="31" r="8" fill="#4f8dff" opacity="0.06"/>
</svg>
