<svg xmlns="http://www.w3.org/2000/svg" viewBox="0 0 96 96" width="96" height="96" role="img" aria-labelledby="title-logo">
 <title id="title-logo">Infr-Orchestrator logo</title>
 <defs>
 <linearGradient id="g1" x1="12" y1="12" x2="84" y2="84" gradientUnits="userSpaceOnUse">
 <stop offset="0" stop-color="#5EE7FF"/>
 <stop offset="0.5" stop-color="#4A7CFF"/>
 <stop offset="1" stop-color="#8B5CFF"/>
 </linearGradient>
 <linearGradient id="g2" x1="20" y1="20" x2="76" y2="76" gradientUnits="userSpaceOnUse">
 <stop offset="0" stop-color="#89F4FF"/>
 <stop offset="1" stop-color="#7A5CFF"/>
 </linearGradient>
 <filter id="glow1" x="-40%" y="-40%" width="180%" height="180%">
 <feGaussianBlur stdDeviation="2.8" result="b"/>
 <feMerge>
 <feMergeNode in="b"/>
 <feMergeNode in="SourceGraphic"/>
 </feMerge>
 </filter>
 </defs>
 <path d="M48 8 78 25v35L48 88 18 60V25Z" fill="#0A1020" stroke="url(#g1)" stroke-width="2.5"/>
 <path d="M48 18 68 29v24L48 64 28 53V29Z" fill="none" stroke="url(#g2)" stroke-width="2.5" opacity=".9"/>
 <path d="M48 18v22" stroke="#5EE7FF" stroke-width="3" stroke-linecap="round" filter="url(#glow1)"/>
 <path d="M28 29l20 11 20-11" fill="none" stroke="#4A7CFF" stroke-width="3" stroke-linecap="round" stroke-linejoin="round"/>
 <path d="M28 53l20-13 20 13" fill="none" stroke="#8B5CFF" stroke-width="3" stroke-linecap="round" stroke-linejoin="round"/>
 <path d="M38 47h20" stroke="#C6D4FF" stroke-width="3" stroke-linecap="round"/>
 <circle cx="48" cy="40" r="3.5" fill="#5EE7FF"/>
 <circle cx="38" cy="47" r="2.4" fill="#4A7CFF"/>
 <circle cx="58" cy="47" r="2.4" fill="#8B5CFF"/>
</svg>
